<svg viewBox="0 0 190 43" xmlns="http://www.w3.org/2000/svg" xml:space="preserve" style="fill-rule:evenodd;clip-rule:evenodd;stroke-linejoin:round;stroke-miterlimit:2">
    <path d="M22.753 7.081a4.4 4.4 0 0 0 2.066.48 4.533 4.533 0 0 0 1.88-.372 3.488 3.488 0 0 0 1.364-1.074l-1.539-1.374a1.975 1.975 0 0 1-1.58.847c-.461.02-.91-.159-1.23-.491a1.83 1.83 0 0 1-.465-1.317 1.832 1.832 0 0 1 .465-1.317c.321-.331.769-.51 1.23-.49a1.98 1.98 0 0 1 1.58.847l1.539-1.374A3.497 3.497 0 0 0 26.699.372 4.549 4.549 0 0 0 24.819 0a4.4 4.4 0 0 0-2.066.48 3.598 3.598 0 0 0-1.441 1.343 3.7 3.7 0 0 0-.521 1.957 3.703 3.703 0 0 0 .521 1.958 3.59 3.59 0 0 0 1.441 1.343Z" style="fill:#fff;fill-rule:nonzero"/>
    <path style="fill:#fff" d="M29.766.165h2.438v7.231h-2.438z"/>
    <path d="M35.901 7.396h2.438v-5.34h2.117V.165h-6.673v1.891h2.118v5.34ZM47.161.165l-1.487 2.5-1.478-2.5h-2.572l2.727 4.576v2.655h2.438V4.773L49.516.165h-2.355ZM56.685 7.076a4.774 4.774 0 0 0 4.194 0 3.63 3.63 0 0 0 1.984-3.295A3.63 3.63 0 0 0 60.879.485a4.78 4.78 0 0 0-4.194 0 3.627 3.627 0 0 0-1.983 3.296 3.625 3.625 0 0 0 1.983 3.295Zm.692-4.251c.133-.259.335-.477.584-.63a1.636 1.636 0 0 1 1.643 0 1.6 1.6 0 0 1 .583.63c.15.296.225.624.217.956.008.331-.067.66-.217.955-.133.26-.335.478-.583.63a1.631 1.631 0 0 1-1.643 0 1.582 1.582 0 0 1-.584-.63 2.002 2.002 0 0 1-.216-.955c-.008-.332.066-.66.216-.956ZM67.224 5.082h3.016V3.244h-3.016v-1.24h3.44V.165h-5.878v7.231h2.438V5.082ZM16.949 25.955V0H0v15.466l.002 16.136 2.011-.768a28.243 28.243 0 0 1 8.974-1.55c3.054.028 6.084.551 8.971 1.549a30.787 30.787 0 0 0 10.037 1.747 30.802 30.802 0 0 0 10.036-1.746l.951-.366v-14.5l-24.033 9.987Zm21.067-5.543v7.968a28.579 28.579 0 0 1-8.021 1.234 28.253 28.253 0 0 1-8.972-1.549c-.043-.016-.315-.12-.776-.269l17.769-7.384ZM13.983 2.966v23.519a28.025 28.025 0 0 0-2.996-.166 31.103 31.103 0 0 0-8.021 1.11V2.966h11.017ZM21.023 34.655a30.802 30.802 0 0 0-10.036-1.746A35.575 35.575 0 0 0 0 34.974l.002 3.105c.04-.015 6.124-2.204 10.985-2.204 3.054.027 6.084.55 8.971 1.549a30.812 30.812 0 0 0 10.037 1.746 35.514 35.514 0 0 0 10.986-2.068v-3.086c-.039.015-6.125 2.188-10.986 2.188a28.225 28.225 0 0 1-8.972-1.549ZM50.445 12.036l-3.29 1.367v22.052h12.667v-3.29h-9.377V12.036ZM68.183 19.294a7.584 7.584 0 0 0-5.912 2.592 9.132 9.132 0 0 0-1.863 5.707 8.74 8.74 0 0 0 1.863 5.708 7.877 7.877 0 0 0 5.912 2.591 7.552 7.552 0 0 0 5.998-2.533c.344-.406.646-.845.903-1.31l-3.261-1.399a5.29 5.29 0 0 1-.379.641 4.025 4.025 0 0 1-3.261 1.514 4.083 4.083 0 0 1-3.29-1.514 5.642 5.642 0 0 1-.961-2.796H75.87c.029-.291.059-.612.059-.902a8.908 8.908 0 0 0-1.864-5.708 7.43 7.43 0 0 0-5.882-2.591Zm-4.135 6.581a4.659 4.659 0 0 1 .844-1.98 3.92 3.92 0 0 1 3.29-1.514 3.866 3.866 0 0 1 3.262 1.514c.432.585.721 1.263.844 1.98h-8.24ZM81.385 14.489h-3.261v14.647a9.163 9.163 0 0 0 .67 4.223 4.58 4.58 0 0 0 3.116 2.213 9.923 9.923 0 0 0 4.135-.117v-2.853a9.785 9.785 0 0 1-2.592.087 2.185 2.185 0 0 1-1.689-1.048 5.278 5.278 0 0 1-.378-2.709v-6.431h4.659V19.64h-4.66v-5.151ZM100.113 20.867a6.928 6.928 0 0 0-4.659-1.544 7.073 7.073 0 0 0-4.339 1.66l-.087.088V14.49h-2.912v20.966h3.29v-6.873a16.129 16.129 0 0 1 .204-3.057c.14-.88.583-1.684 1.252-2.272a4.086 4.086 0 0 1 4.863.088c1.107.961 1.34 2.533 1.34 4.309v7.804h3.32v-7.804c.028-2.795-.292-5.066-2.272-6.784ZM112.805 19.294a7.19 7.19 0 0 0-4.397 1.456v-6.26h-3.29v20.966h2.912v-1.34a6.861 6.861 0 0 0 4.863 1.776 6.94 6.94 0 0 0 5.445-2.533 8.993 8.993 0 0 0 1.776-5.766 9.44 9.44 0 0 0-1.776-5.795 7.054 7.054 0 0 0-5.533-2.504Zm2.912 12.055a3.913 3.913 0 0 1-3.29 1.602 4.158 4.158 0 0 1-3.232-1.369 6.301 6.301 0 0 1-1.165-3.989 6.38 6.38 0 0 1 1.165-4.018 3.896 3.896 0 0 1 3.116-1.34 3.841 3.841 0 0 1 3.377 1.573 6.647 6.647 0 0 1 .961 3.785 6.546 6.546 0 0 1-.932 3.756ZM129.933 19.323a5.41 5.41 0 0 0-3.087.99 5.22 5.22 0 0 0-1.543 1.66v-2.242h-2.912v15.724h3.29v-8.037a5.212 5.212 0 0 1 1.223-3.931 3.957 3.957 0 0 1 2.737-1.107 6.722 6.722 0 0 1 2.737.379v-3.057a5.964 5.964 0 0 0-2.445-.379Z" style="fill:#fff;fill-rule:nonzero"/>
    <path style="fill:#fff" d="M134.105 19.731h3.291v15.724h-3.291z"/>
    <path d="M151.337 20.75a7.19 7.19 0 0 0-4.397-1.456 6.989 6.989 0 0 0-5.503 2.505 9.284 9.284 0 0 0-1.806 5.794 8.849 8.849 0 0 0 1.806 5.766 6.883 6.883 0 0 0 5.416 2.533 7.067 7.067 0 0 0 4.892-1.776v1.339h2.883V14.489h-3.291v6.261Zm-.786 10.832a4.094 4.094 0 0 1-3.203 1.369 3.93 3.93 0 0 1-3.32-1.601 6.55 6.55 0 0 1-.932-3.757 6.652 6.652 0 0 1 .99-3.785 3.823 3.823 0 0 1 3.349-1.573 3.892 3.892 0 0 1 3.115 1.34 6.22 6.22 0 0 1 1.194 4.018 6.14 6.14 0 0 1-1.193 3.989ZM168.761 21.099a7.161 7.161 0 0 0-4.804-1.805 6.994 6.994 0 0 0-5.504 2.504 9.282 9.282 0 0 0-1.805 5.795 8.855 8.855 0 0 0 1.805 5.766 6.885 6.885 0 0 0 5.417 2.533 7.121 7.121 0 0 0 4.484-1.427v1.543a3.026 3.026 0 0 1-1.135 2.854 4.824 4.824 0 0 1-2.912.903 3.77 3.77 0 0 1-2.475-.903 3.109 3.109 0 0 1-.758-.873l-3.028 1.455a6.083 6.083 0 0 0 2.388 2.243 6.805 6.805 0 0 0 3.843 1.165 8.38 8.38 0 0 0 4.63-1.252c1.893-1.194 2.738-3.029 2.738-5.563V19.731h-2.883l-.001 1.368Zm-1.194 10.483a4.096 4.096 0 0 1-3.203 1.369 3.93 3.93 0 0 1-3.32-1.602 6.553 6.553 0 0 1-.931-3.756 6.652 6.652 0 0 1 .99-3.785 3.821 3.821 0 0 1 3.348-1.573 3.896 3.896 0 0 1 3.116 1.34 6.223 6.223 0 0 1 1.194 4.018 6.142 6.142 0 0 1-1.194 3.989ZM189.406 27.593a8.907 8.907 0 0 0-1.864-5.707 7.43 7.43 0 0 0-5.882-2.592 7.581 7.581 0 0 0-5.911 2.592 9.127 9.127 0 0 0-1.864 5.707 8.736 8.736 0 0 0 1.864 5.708 7.874 7.874 0 0 0 5.911 2.591 7.552 7.552 0 0 0 5.998-2.533c.344-.406.646-.845.903-1.31L185.3 30.65a5.163 5.163 0 0 1-.379.641 4.025 4.025 0 0 1-3.261 1.514 4.083 4.083 0 0 1-3.29-1.514 5.642 5.642 0 0 1-.961-2.796h11.939c.028-.291.058-.611.058-.902Zm-11.881-1.718a4.659 4.659 0 0 1 .844-1.98 3.92 3.92 0 0 1 3.29-1.514 3.866 3.866 0 0 1 3.262 1.514c.432.585.721 1.263.844 1.98h-8.24ZM137.262 14.309a2.217 2.217 0 0 0-1.529-.55 2.151 2.151 0 0 0-1.528.577 1.976 1.976 0 0 0 0 2.869 2.15 2.15 0 0 0 1.528.577 2.088 2.088 0 0 0 1.542-.604 2.02 2.02 0 0 0 .604-1.488 1.778 1.778 0 0 0-.617-1.381Z" style="fill:#fff;fill-rule:nonzero"/>
</svg>
